<svg width="163" height="90" viewBox="0 0 163 90" fill="none" xmlns="http://www.w3.org/2000/svg">
<g clip-path="url(#clip0)">
<path d="M162.037 45C162.037 69.8535 141.89 90 117.037 90C106.659 90 97.103 86.4839 89.4896 80.586C78.8705 72.3559 72.044 59.4754 72.044 45.0071C72.044 34.7354 75.482 25.2717 81.2736 17.7009C89.4896 6.93998 102.448 0 117.037 0C141.89 0 162.037 20.1465 162.037 45Z" fill="url(#paint0_linear)"/>
<path d="M91.4249 56.4277C96.5926 56.4277 100.577 61.5175 98.776 67.0185C98.0387 69.2656 96.2524 71.0662 94.0123 71.8034C93.1333 72.0941 92.2613 72.2288 91.4178 72.2288C86.25 72.2288 82.2661 67.139 84.0666 61.638C84.8039 59.3838 86.5903 57.5903 88.8303 56.8531C89.7164 56.5624 90.5884 56.4277 91.4249 56.4277Z" fill="#A0FA37"/>
<path d="M99.4423 67.2025C98.698 69.4781 96.9825 71.3141 94.7991 72.2214H138.552C140.813 72.2214 142.642 70.3925 142.642 68.1241V61.3613H99.3998C100.059 63.1903 100.087 65.2248 99.4423 67.2025Z" fill="white"/>
<path d="M95.5222 20.2744C93.2609 20.2744 91.4319 22.1033 91.4319 24.3647V31.1416H142.649V24.3647C142.649 22.1033 140.82 20.2744 138.559 20.2744H95.5222Z" fill="white"/>
<path d="M91.4249 55.2867V55.705C93.9698 55.705 96.3941 56.8746 97.9962 58.8595L138.176 43.5972C140.862 42.5693 142.635 40.0032 142.635 37.118V31.1279L95.8908 48.8004C93.2112 49.8212 91.4249 52.4016 91.4249 55.2867Z" fill="white"/>
<path d="M69.4211 56.4207V51.8059C69.4211 47.2265 68.4783 43.7388 66.6068 41.4136C64.6716 39.0389 61.9565 37.8125 58.5184 37.8125C55.2434 37.8125 52.6489 39.1027 50.7987 41.6476C48.9769 44.1783 48.0695 47.6093 48.0695 52.1745V59.0578C48.0695 63.2756 48.9768 66.5649 50.742 68.7766C52.5638 71.0734 55.2434 72.2289 58.6673 72.2289C61.7793 72.2289 64.225 71.3215 66.0751 69.4642C67.8474 67.6069 68.8894 64.8848 69.1872 61.3971L69.2155 61.1632H63.6437L63.6153 61.3546C63.4097 63.1835 62.9135 64.6225 62.1621 65.5866C61.3823 66.5082 60.3757 66.9335 59.0359 66.9335C57.3913 66.9335 56.2642 66.3026 55.4844 64.9273C54.6905 63.5521 54.3077 61.3829 54.3077 58.2922V56.3924L69.4211 56.4207ZM63.3885 49.8352V51.735H54.3077V50.8276C54.3077 48.0488 54.6905 46.0852 55.4631 44.8659C56.2429 43.6679 57.37 43.0937 59.0147 43.0937C60.3828 43.0937 61.432 43.6821 62.2117 44.8659C63.0057 45.9859 63.3885 47.6731 63.3885 49.8352Z" fill="black"/>
<path d="M33.7642 25.4138C34.5156 25.4138 35.1465 24.8113 35.1465 24.0244V21.6638C35.1465 20.9053 34.5439 20.2744 33.7642 20.2744H22.2873C21.5359 20.2744 20.905 20.877 20.905 21.6638V24.0244C20.905 24.7829 21.5076 25.4138 22.2873 25.4138H24.3431C24.5912 25.4138 24.811 25.4989 24.9315 25.6619C25.052 25.825 25.0945 26.0589 25.052 26.2928L17.8001 58.5187C17.7717 58.6038 17.7576 58.6676 17.7292 58.7101C17.7008 58.6676 17.6867 58.5967 17.6583 58.5187L10.4986 26.2928C10.4277 26.0447 10.4986 25.825 10.6191 25.6619C10.7538 25.4989 10.9594 25.4138 11.2216 25.4138H13.3625C14.1139 25.4138 14.7448 24.8113 14.7448 24.0244V21.6638C14.7448 20.9053 14.1422 20.2744 13.3625 20.2744H1.36815C0.602552 20.2815 0 20.9053 0 21.6567V24.0173C0 24.7758 0.602552 25.4067 1.38233 25.4067H2.24716C2.79301 25.4067 3.38847 25.8462 3.50898 26.3992L12.6536 62.4601L15.1347 72.2215H20.1536L30.9783 26.3992C31.0988 25.8746 31.6801 25.4067 32.2117 25.4067H33.7642V25.4138Z" fill="black"/>
<path d="M34.9197 31.6519C34.9197 32.4104 35.5222 33.0413 36.302 33.0413H39.4991C40.2505 33.0413 40.8814 32.4387 40.8814 31.6519V29.2771C40.8814 28.5186 40.2788 27.8877 39.4991 27.8877H36.302C35.5506 27.8877 34.9197 28.4902 34.9197 29.2771V31.6519Z" fill="black"/>
<path d="M43.1356 67.3015H42.0369C41.5194 67.3015 41.0657 66.862 41.0657 66.3233V40.449C41.0657 39.6905 40.4631 39.0596 39.6834 39.0596H32.8214C32.0699 39.0596 31.439 39.6621 31.439 40.449V42.5898C31.439 43.3483 32.0416 43.9792 32.8214 43.9792H33.9201C34.4447 43.9792 34.8913 44.4187 34.8913 44.9575V66.3445C34.8913 66.8691 34.4518 67.3228 33.9201 67.3228C33.9201 67.3228 31.4674 67.9254 31.4674 68.7122V72.2283H44.4967V68.7122C44.5321 67.9183 43.9012 67.3015 43.1356 67.3015Z" fill="black"/>
</g>
<defs>
<linearGradient id="paint0_linear" x1="149.459" y1="77.4228" x2="85.8213" y2="13.785" gradientUnits="userSpaceOnUse">
<stop stop-color="#00FFB4"/>
<stop offset="0.1488" stop-color="#37E3C7"/>
<stop offset="0.3012" stop-color="#68CBD8"/>
<stop offset="0.4527" stop-color="#90B6E6"/>
<stop offset="0.6004" stop-color="#AFA6F1"/>
<stop offset="0.7432" stop-color="#C69BF9"/>
<stop offset="0.8789" stop-color="#D394FD"/>
<stop offset="1" stop-color="#D892FF"/>
</linearGradient>
<clipPath id="clip0">
<rect width="162.037" height="90" fill="white"/>
</clipPath>
</defs>
</svg>
